<svg xmlns="http://www.w3.org/2000/svg" viewBox="0 0 800 600">
  <rect width="800" height="600" fill="#FFF8E1"/>
  
  <!-- 木 -->
  <path d="M700 500 L730 500 L715 400 Z" fill="#4CAF50"/>
  <rect x="713" y="500" width="4" height="50" fill="#795548"/>
  
  <!-- 草 -->
  <path d="M0 600 Q200 550 400 600 Q600 550 800 600" fill="#8BC34A"/>
  
  <!-- 雲 -->
  <path d="M50 100 Q75 80 100 100 Q125 80 150 100 Q125 120 100 100 Q75 120 50 100" fill="#FFFFFF" opacity="0.7"/>
  <path d="M550 150 Q575 130 600 150 Q625 130 650 150 Q625 170 600 150 Q575 170 550 150" fill="#FFFFFF" opacity="0.7"/>
  
  <!-- 鳥 -->
  <path d="M200 200 Q220 180 240 200 Q220 220 200 200" fill="#795548"/>
  <path d="M600 250 Q620 230 640 250 Q620 270 600 250" fill="#795548"/>
  
  <!-- 太陽 -->
  <circle cx="700" cy="100" r="50" fill="#FFC107"/>
  
  <!-- うさぎ -->
  <circle cx="100" cy="500" r="30" fill="#FFCDD2"/>
  <circle cx="85" cy="480" r="10" fill="#FFCDD2"/>
  <circle cx="115" cy="480" r="10" fill="#FFCDD2"/>
  
  <!-- きつね -->
  <path d="M650 520 L680 500 L710 520 L680 540 Z" fill="#FF9800"/>
  <circle cx="665" cy="510" r="5" fill="#795548"/>
  <circle cx="695" cy="510" r="5" fill="#795548"/>
</svg>
