<svg width="92" height="73" viewBox="0 0 92 73" fill="none" xmlns="http://www.w3.org/2000/svg">
<path d="M76.0832 42.5054L86.2931 35.8907L73.7789 27.2895L82.343 21.6667L70.8138 16.0437L69.4127 15.7527L66.0761 3.34564L58.6154 13.5151L52.6664 12.2799L50.3569 3.142L44.7951 10.4206L49.9777 11.7245L40.5104 9.75948L10.5391 5.76316V4.13393C10.5391 1.85402 8.69572 0 6.42041 0H4.11881C1.84351 0 1.90735e-06 1.85402 1.90735e-06 4.13393V6.12016C1.90735e-06 8.21488 1.55378 9.94466 3.56044 10.217L3.62364 11.4126L5.27214 28.6147L12.0718 30.9581L13.8362 38.5382L18.687 33.2406L21.9946 34.3779L22.7268 39.5302L26.137 35.8089L31.9306 37.8058L32.9392 41.8444L35.9836 39.2023L42.5329 41.461L43.4782 43.8308L45.2585 42.3973L55.9715 46.0921L55.6634 49.1231L48.5347 50.9454L47.7578 50.115L47.1179 51.3051L43.4573 52.2441L41.5033 50.115L40.3339 53.0429L36.3601 54.0558L33.5975 51.1068L32.2703 55.1031L28.6677 56.0236L25.6919 52.0985L24.3225 57.1343L19.4321 58.3854L21.4073 64.6723L62.5814 63.3472L74.1081 65L69.4943 57.7241L83.9888 54.4153L76.0832 42.5054Z" fill="black" fill-opacity="0.25"/>
<path d="M57.1602 31.4849L48.5298 31.9914L51.3241 35.4878L53.8781 35.6504L57.1602 31.4849Z" fill="black" fill-opacity="0.25"/>
<g filter="url(#filter0_d)">
<path d="M81.1376 49.6959L88 45.2691L79.5889 39.513L85.345 35.75L77.5959 31.9869L76.6542 31.7922L74.4116 23.489L69.3971 30.2947L65.3986 29.4681L63.8463 23.3527L60.108 28.2238L63.5914 29.0964L57.2282 27.7813L37.0836 25.1069V24.0166C37.0836 22.4908 35.8446 21.25 34.3153 21.25H32.7684C31.2391 21.25 30 22.4908 30 24.0166V25.3458C30 26.7477 31.0443 27.9053 32.3931 28.0875L32.4355 28.8876L33.5436 40.3999L38.1138 41.9681L39.2997 47.041L42.5601 43.4956L44.7832 44.2567L45.2753 47.7048L47.5674 45.2144L51.4615 46.5508L52.1393 49.2536L54.1855 47.4854L58.5875 48.997L59.2229 50.5829L60.4195 49.6236L67.62 52.0963L67.4129 54.1247L62.6215 55.3443L62.0994 54.7885L61.6692 55.585L59.2089 56.2133L57.8955 54.7885L57.1096 56.7479L54.4386 57.4258L52.5818 55.4522L51.6897 58.1267L49.2683 58.7427L47.2683 56.1159L46.3478 59.486L43.0609 60.3233L44.3884 64.5307L72.0627 63.6439L79.8101 64.75L76.709 59.8807L86.4512 57.6664L81.1376 49.6959Z" fill="#252525"/>
</g>
<path d="M68.5596 40.974L61.6074 41.3819L63.8583 44.1985L65.9157 44.3295L68.5596 40.974Z" fill="#FFD800" stroke="#FFD800"/>
<defs>
<filter id="filter0_d" x="26" y="21.25" width="66" height="51.5" filterUnits="userSpaceOnUse" color-interpolation-filters="sRGB">
<feFlood flood-opacity="0" result="BackgroundImageFix"/>
<feColorMatrix in="SourceAlpha" type="matrix" values="0 0 0 0 0 0 0 0 0 0 0 0 0 0 0 0 0 0 127 0"/>
<feOffset dy="4"/>
<feGaussianBlur stdDeviation="2"/>
<feColorMatrix type="matrix" values="0 0 0 0 0 0 0 0 0 0 0 0 0 0 0 0 0 0 0.25 0"/>
<feBlend mode="normal" in2="BackgroundImageFix" result="effect1_dropShadow"/>
<feBlend mode="normal" in="SourceGraphic" in2="effect1_dropShadow" result="shape"/>
</filter>
</defs>
</svg>
